<?xml version="1.0" standalone="no"?>
<!DOCTYPE svg PUBLIC "-//W3C//DTD SVG 20010904//EN"
 "http://www.w3.org/TR/2001/REC-SVG-20010904/DTD/svg10.dtd">
<svg version="1.0" xmlns="http://www.w3.org/2000/svg"
 width="318.000000pt" height="318.000000pt" viewBox="0 0 318.000000 318.000000"
 preserveAspectRatio="xMidYMid meet">
<metadata>
Created by potrace 1.14, written by Peter Selinger 2001-2017
</metadata>
<g transform="translate(0.000000,318.000000) scale(0.100000,-0.100000)"
fill="#000000" stroke="none">
<path d="M2128 2091 c-81 -26 -142 -82 -184 -170 -27 -56 -30 -67 -39 -139 -6
-53 -6 -54 -48 -68 -42 -14 -42 -38 1 -40 18 -1 35 -4 39 -7 11 -11 6 -304 -6
-325 -6 -11 -24 -23 -41 -27 -16 -4 -30 -13 -30 -20 0 -10 28 -13 130 -11 130
1 160 10 98 30 -43 14 -44 22 -43 346 2 288 7 321 58 355 37 24 109 22 154 -5
53 -32 89 -35 107 -9 46 66 -86 126 -196 90z"/>
<path d="M2600 2086 c-20 -13 -51 -27 -70 -31 -40 -8 -62 -23 -54 -36 3 -5 13
-9 23 -9 44 0 46 -17 47 -341 1 -337 1 -342 -56 -354 -17 -4 -30 -12 -30 -19
0 -10 32 -13 138 -11 75 1 139 3 141 3 6 3 -20 31 -27 30 -19 -5 -53 16 -58
36 -3 12 -4 188 -2 389 2 240 0 367 -7 366 -5 0 -26 -11 -45 -23z"/>
<path d="M413 2056 c-8 -12 13 -23 58 -30 67 -11 67 -11 67 -353 0 -304 0
-306 -22 -328 -13 -13 -42 -26 -64 -30 -24 -4 -42 -12 -42 -19 0 -10 42 -13
185 -13 149 0 185 2 185 13 0 8 -16 16 -41 20 -79 13 -83 22 -85 185 0 79 1
150 4 157 5 13 76 16 135 5 29 -5 67 -63 67 -102 0 -20 17 -38 26 -28 4 4 7
200 4 285 0 17 -30 15 -31 -3 -2 -18 -3 -22 -12 -57 -4 -15 -17 -33 -29 -39
-21 -11 -132 -20 -154 -12 -6 2 -10 53 -9 143 0 172 -1 170 116 174 135 4 202
-24 239 -101 19 -40 30 -50 42 -38 3 3 -5 44 -17 92 l-21 87 -298 0 c-164 1
-300 -3 -303 -8z"/>
<path d="M1670 2000 c-13 -10 -50 -26 -82 -36 -55 -16 -80 -44 -40 -44 10 0
26 -6 36 -13 17 -12 18 -35 19 -278 0 -179 -3 -271 -11 -285 -6 -12 -25 -24
-42 -27 -16 -4 -30 -13 -30 -20 0 -10 29 -13 135 -14 108 0 135 3 135 14 0 7
-13 16 -30 19 -54 11 -54 15 -55 295 0 142 2 290 5 329 6 77 -2 89 -40 60z"/>
<path d="M2285 1750 c-16 -11 -54 -27 -83 -35 -54 -16 -66 -37 -24 -43 40 -6
46 -27 46 -166 0 -163 -4 -179 -46 -191 -66 -20 -34 -30 100 -32 103 -1 132 2
132 12 0 7 -15 16 -34 19 -24 5 -37 14 -42 29 -9 25 -8 340 0 393 7 40 -5 43
-49 14z"/>
<path d="M1010 1718 c-95 -16 -99 -18 -94 -31 2 -7 17 -14 31 -15 50 -4 55
-19 58 -165 1 -112 5 -140 21 -167 54 -93 165 -102 273 -23 l24 17 -5 -38 c-4
-36 -3 -37 21 -32 14 4 54 9 88 13 68 6 92 27 42 38 -16 4 -33 14 -38 23 -5 9
-8 99 -8 200 0 100 -2 184 -5 187 -2 3 -45 -1 -94 -8 -65 -10 -90 -17 -92 -29
-2 -11 6 -15 30 -16 51 -1 58 -20 58 -163 l0 -128 -31 -22 c-17 -12 -50 -24
-74 -27 -39 -4 -48 -1 -75 26 -33 33 -34 45 -30 290 1 93 8 88 -100 70z"/>
<path d="M1134 1222 c-17 -11 -15 -169 2 -169 8 0 14 3 15 6 4 32 3 143 -1
155 -3 8 -10 12 -16 8z"/>
<path d="M1424 1219 c-8 -14 11 -33 25 -25 6 4 11 11 11 16 0 13 -29 20 -36 9z"/>
<path d="M880 1203 c-41 -16 -39 -49 5 -74 19 -12 35 -28 35 -36 0 -12 -8 -14
-35 -10 -40 7 -47 -8 -11 -24 34 -16 81 8 81 41 0 18 -10 30 -40 47 -32 18
-36 23 -22 29 9 3 26 4 38 1 15 -4 19 -1 17 11 -3 18 -41 26 -68 15z"/>
<path d="M1986 1202 c-9 -15 -3 -142 7 -149 16 -10 22 13 22 83 0 42 -5 69
-12 71 -6 2 -14 0 -17 -5z"/>
<path d="M1330 1171 c-13 -19 -19 -31 -12 -27 8 5 12 -3 12 -26 0 -42 10 -57
39 -60 29 -4 39 18 12 25 -14 3 -19 13 -19 35 1 17 4 31 7 30 18 -2 31 3 31
12 0 6 -9 10 -19 10 -11 0 -21 8 -23 17 -3 14 -9 10 -28 -16z"/>
<path d="M1521 1167 c-33 -17 -45 -39 -37 -71 13 -54 99 -54 112 0 12 49 -34
92 -75 71z m37 -26 c8 -4 12 -19 10 -32 -4 -30 -51 -35 -56 -6 -8 39 15 58 46
38z"/>
<path d="M1681 1171 c-7 -5 -22 -6 -32 -4 -20 6 -21 2 -21 -67 0 -47 1 -50 17
-44 10 4 15 20 15 44 0 22 5 42 10 45 19 12 39 -15 35 -45 -3 -21 1 -33 14
-39 18 -10 20 0 12 86 -1 18 -35 33 -50 24z"/>
<path d="M1790 1172 c-39 -13 -39 -47 1 -68 22 -11 28 -18 19 -24 -7 -4 -21
-5 -31 -3 -23 6 -26 -12 -3 -21 25 -10 42 -7 58 10 19 19 7 49 -24 59 -28 9
-25 25 5 25 14 0 25 4 25 9 0 11 -31 19 -50 13z"/>
<path d="M2117 1173 c-4 -3 -20 -6 -37 -5 l-31 1 3 -55 c3 -62 21 -73 26 -17
2 21 8 41 14 44 19 12 35 -1 36 -29 0 -51 2 -59 16 -59 21 0 18 92 -4 112 -9
8 -20 12 -23 8z"/>
<path d="M990 1151 c-12 -23 -13 -61 -2 -77 11 -18 47 -25 74 -15 33 12 44 55
23 87 -20 31 -79 34 -95 5z m70 -16 c16 -19 3 -55 -20 -55 -29 0 -44 35 -24
54 19 20 28 20 44 1z"/>
<path d="M1185 1125 c2 -25 8 -52 15 -60 13 -16 42 -20 54 -8 4 4 13 8 19 8
15 0 17 6 17 60 0 33 -4 45 -15 45 -11 0 -15 -12 -15 -45 0 -38 -3 -45 -20
-45 -20 0 -26 21 -22 73 1 10 -5 17 -17 17 -15 0 -18 -7 -16 -45z"/>
<path d="M1423 1115 c1 -30 5 -55 10 -55 4 0 10 0 15 0 4 0 7 25 8 55 0 46 -3
55 -18 55 -14 0 -17 -9 -15 -55z"/>
<path d="M2196 1152 c-9 -11 -14 -29 -12 -43 3 -13 5 -27 5 -30 2 -12 54 -30
70 -24 26 8 22 32 -4 27 -31 -5 -50 21 -35 48 8 16 19 21 35 18 16 -4 22 -1
18 9 -8 19 -57 16 -77 -5z"/>
<path d="M1876 1077 c-4 -9 -8 -24 -11 -32 -2 -8 2 -15 9 -15 17 0 27 33 15
51 -6 11 -9 10 -13 -4z"/>
<path d="M2302 1074 c3 -17 21 -21 26 -6 1 5 -4 12 -13 16 -11 4 -15 1 -13
-10z"/>
</g>
</svg>
